<?xml version="1.0" encoding="UTF-8"?><!DOCTYPE svg PUBLIC "-//W3C//DTD SVG 1.1//EN" "http://www.w3.org/Graphics/SVG/1.1/DTD/svg11.dtd"><svg xmlns="http://www.w3.org/2000/svg" xmlns:xlink="http://www.w3.org/1999/xlink"><defs>
<clipPath id="clip0_6_899">
<rect width="48" height="48" fill="white"/>
</clipPath>

<clipPath id="clip0_6_897">
<rect width="48" height="48" fill="white"/>
</clipPath>
</defs><symbol id="checklist" viewBox="0 0 48 48">
<path d="M11.3639 14.469H14.1756V17.2807H11.3639V14.469Z" fill="#5A73EF"/>
<path d="M11.3639 25.7158H14.1756V28.5275H11.3639V25.7158Z" fill="#5A73EF"/>
<path d="M36.2256 27.4833C37.2631 27.4833 38.2697 27.6192 39.2276 27.875V4.21761C39.2276 3.44158 38.5978 2.81177 37.8217 2.81177H33.5995C33.5995 6.47163 30.622 9.4492 26.9621 9.4492H15.1943C13.3648 9.4492 11.705 8.70504 10.5035 7.50258C9.30103 6.30106 8.55687 4.64123 8.55687 2.81177H4.33467C3.55865 2.81177 2.92883 3.44158 2.92883 4.21761V39.551H24.5769C24.3107 33.0692 29.5732 27.4833 36.2256 27.4833ZM29.2321 11.6573H31.2612C32.0372 11.6573 32.667 12.2871 32.667 13.0631C32.667 13.8392 32.0372 14.469 31.2612 14.469H29.2321C28.456 14.469 27.8262 13.8392 27.8262 13.0631C27.8262 12.2871 28.456 11.6573 29.2321 11.6573ZM21.2047 11.6573H24.171C24.9471 11.6573 25.5769 12.2871 25.5769 13.0631C25.5769 13.8392 24.9471 14.469 24.171 14.469H21.2047C20.4287 14.469 19.7989 13.8392 19.7989 13.0631C19.7989 12.2871 20.4287 11.6573 21.2047 11.6573ZM21.2047 17.2807H31.2612C32.0372 17.2807 32.667 17.9105 32.667 18.6865C32.667 19.4635 32.0372 20.0923 31.2612 20.0923H21.2047C20.4287 20.0923 19.7989 19.4635 19.7989 18.6865C19.7989 17.9105 20.4287 17.2807 21.2047 17.2807ZM16.9872 29.9332C16.9872 30.7102 16.3574 31.339 15.5814 31.339H9.95802C9.182 31.339 8.55219 30.7102 8.55219 29.9332V24.3098C8.55219 23.5338 9.182 22.904 9.95802 22.904H15.5814C16.3574 22.904 16.9872 23.5338 16.9872 24.3098V29.9332ZM16.9872 18.6865C16.9872 19.4635 16.3574 20.0923 15.5814 20.0923H9.95802C9.182 20.0923 8.55219 19.4635 8.55219 18.6865V13.0631C8.55219 12.2871 9.182 11.6573 9.95802 11.6573H15.5814C16.3574 11.6573 16.9872 12.2871 16.9872 13.0631V18.6865ZM19.7989 24.4617C19.7989 23.6857 20.4287 23.0558 21.2047 23.0558H31.2612C32.0372 23.0558 32.667 23.6857 32.667 24.4617C32.667 25.2377 32.0372 25.8675 31.2612 25.8675H21.2047C20.4287 25.8675 19.7989 25.2377 19.7989 24.4617Z" fill="#5A73EF"/>
<path d="M15.1943 6.63743H26.9621C29.0718 6.63743 30.7878 4.92137 30.7878 2.81168V1.40584C30.7878 0.629815 30.159 0 29.382 0H12.7744C11.9974 0 11.3685 0.629815 11.3685 1.40584V2.81168C11.3685 4.92137 13.0846 6.63743 15.1943 6.63743Z" fill="#5A73EF"/>
<path d="M36.2257 30.2949C31.3483 30.2949 27.3801 34.2631 27.3801 39.1405C27.3801 44.03 31.3437 47.986 36.2257 47.986C41.2042 47.986 45.0712 43.9119 45.0712 39.1405C45.0712 34.3681 41.2033 30.2949 36.2257 30.2949ZM40.7421 37.9633L36.399 42.3064C35.8498 42.8556 34.9585 42.8537 34.4112 42.3064L31.7101 39.6044C31.1609 39.0561 31.1609 38.1657 31.7101 37.6165C32.2584 37.0673 33.1487 37.0673 33.698 37.6165L35.4056 39.3242L38.7534 35.9754C39.3026 35.4262 40.1929 35.4262 40.7421 35.9754C41.2914 36.5247 41.2914 37.4141 40.7421 37.9633Z" fill="#5A73EF"/>
<path d="M28.6491 48C24.2301 47.999 16.8195 47.9859 4.33467 47.9859C3.55865 47.9859 2.92883 47.3561 2.92883 46.5801V42.3625H25.0174C25.653 44.5877 26.9439 46.5464 28.6491 48Z" fill="#5A73EF"/>
</symbol><symbol id="close" viewBox="0 0 26 26">
<g opacity="0.6">
<path d="M1 1L25 25" stroke="white"/>
<path d="M25 1L1 25" stroke="white"/>
</g>
</symbol><symbol id="goal" viewBox="0 0 48 48">
<g clip-path="url(#clip0_6_899)">
<path d="M11.523 36.6826H1.84253C1.0659 36.6826 0.436279 37.3122 0.436279 38.0889V46.5939C0.436279 47.3705 1.0659 48.0001 1.84253 48.0001H12.9293V38.0889C12.9292 37.3122 12.2997 36.6826 11.523 36.6826Z" fill="#5A73EF"/>
<path d="M25.4223 28.8076H17.148C16.3714 28.8076 15.7418 29.4372 15.7418 30.2139V48.0001H26.8285V30.2139C26.8285 29.4372 26.1989 28.8076 25.4223 28.8076Z" fill="#5A73EF"/>
<path d="M44.7936 7.59469L47.6276 4.51875C48.0064 4.10813 48.1058 3.51281 47.8817 3.00187C47.6576 2.49 47.1523 2.16 46.5936 2.16H37.5281V1.40625C37.5281 0.63 36.899 0 36.1218 0C35.3456 0 34.7156 0.63 34.7156 1.40625V17.8125H31.0471C30.2705 17.8125 29.6409 18.4421 29.6409 19.2188V48H40.9667C41.7439 48 42.373 47.37 42.373 46.5938V19.2188C42.373 18.4425 41.7439 17.8125 40.9667 17.8125H37.5281V12.7809H46.5936C47.1626 12.7809 47.6755 12.4378 47.893 11.9119C48.1105 11.3859 47.9895 10.7803 47.5864 10.3791L44.7936 7.59469Z" fill="#5A73EF"/>
<path d="M23.8642 12.0733C24.2093 12.7692 25.0529 13.0534 25.7488 12.7084C26.4446 12.3633 26.729 11.5196 26.3839 10.8238C23.8344 5.68278 24.0923 6.20103 24.0553 6.13119C23.791 5.63188 23.2473 5.33038 22.6682 5.39038C22.6642 5.39075 22.6602 5.3916 22.6562 5.39207C22.5411 5.405 22.8484 5.34472 17.522 6.4656C16.762 6.62553 16.2756 7.37132 16.4355 8.13135C16.5749 8.79369 17.1592 9.24828 17.8101 9.24828C18.0059 9.24828 17.8798 9.2645 20.353 8.744C18.5089 12.3637 16.1089 15.6624 13.1943 18.5772C9.6221 22.1494 5.47179 24.95 0.858636 26.9011C0.143323 27.2038 -0.191271 28.0288 0.111261 28.7441C0.41398 29.46 1.23945 29.7938 1.9542 29.4915C6.9026 27.3986 11.3534 24.3956 15.1829 20.5659C18.3041 17.4447 20.8759 13.9117 22.8529 10.0342L23.8642 12.0733Z" fill="#5A73EF"/>
</g>

</symbol><symbol id="mental" viewBox="0 0 48 48">
<g clip-path="url(#clip0_6_897)">
<path d="M32.9772 47.4154C33.6723 47.8437 34.547 47.8522 35.2475 47.433C36.707 46.5595 38.9141 45.0934 41.1144 43.082C43.1474 41.2235 44.7585 39.2736 45.9028 37.2865C53.2474 24.3358 39.2424 19.0613 35.4003 27.5746C35.2348 27.9959 34.8947 28.3325 34.458 28.4511C33.7351 28.6475 33.0205 28.2621 32.7653 27.6042C31.7988 25.1102 29.3454 23.4367 26.6673 23.4442C22.8711 23.3846 20.1146 26.8916 20.1891 30.6084C20.2305 38.6871 29.1228 45.0403 32.9772 47.4154Z" fill="#5A73EF"/>
<path d="M19.9757 39.0436C18.896 37.2956 18.1495 35.5227 17.7417 33.7446C16.8205 33.7444 14.4621 33.6277 12.0935 31.3235C11.5492 30.7816 11.5037 29.8942 12.0293 29.3344C12.5772 28.7508 13.4948 28.7418 14.0542 29.3047C15.3991 30.6584 16.8194 30.8912 17.3823 30.928C17.379 30.7808 17.3722 30.6335 17.3765 30.4865C17.3833 29.3581 17.567 28.2502 17.9085 27.2082V15.1623H16.8027C14.8658 15.1623 13.2877 16.7276 13.2667 18.6596C13.2587 19.4038 12.7051 20.0489 11.9627 20.1017C11.1391 20.1604 10.4527 19.5095 10.4527 18.6984C10.4527 17.3849 10.8536 16.1632 11.5395 15.1494C11.5646 15.1077 11.5919 15.0669 11.6218 15.0272C12.9518 13.2639 12.537 11.1216 11.3659 10.0455C9.99918 8.72687 11.7322 6.7248 13.2042 7.91432C14.542 9.1059 15.2348 10.7999 15.2516 12.5408C15.7483 12.4157 16.2677 12.3484 16.8027 12.3484H17.9087V2.0201C17.9087 1.27658 17.3977 0.6337 16.6755 0.456801C14.2965 -0.161501 11.7003 1.1477 10.7419 3.29638C10.6352 3.52345 10.394 3.65411 10.1453 3.62035C6.72674 3.13205 3.58195 5.86826 3.60971 9.3266C3.62041 9.56222 3.48937 9.7802 3.27552 9.88093C-0.866315 11.7999 -1.14451 17.7512 2.81011 20.0436C3.19232 20.2699 3.17506 20.8287 2.78394 21.0393C-0.950638 23.0082 -0.800001 28.5485 3.0385 30.3115C3.26558 30.4182 3.39623 30.6594 3.36237 30.9081C2.87342 34.3247 5.61085 37.4729 9.06863 37.4438C9.30565 37.4366 9.51941 37.5796 9.61152 37.7982C10.4458 39.7692 12.4276 41.069 14.7786 41.069L14.8275 41.0724C17.138 41.0724 18.8576 40.0413 19.9907 39.0673C19.9857 39.0593 19.9806 39.0515 19.9757 39.0436Z" fill="#5A73EF"/>
<path d="M20.7224 16.0538C22.4168 15.1919 23.3168 13.4662 23.2275 11.9209C23.1826 11.1452 23.7752 10.48 24.5508 10.4352C25.327 10.3902 25.9918 10.9829 26.0367 11.7586C26.1451 13.6351 25.4824 15.4557 24.1707 16.8851C23.231 17.909 22.0351 18.6592 20.7223 19.0655V22.8721C22.3662 21.4224 24.4543 20.6305 26.6643 20.6305C28.5891 20.6289 30.442 21.204 32.0183 22.3025C32.8076 22.8526 33.4996 23.5126 34.0771 24.2603C34.6191 23.5586 35.2632 22.9354 35.9927 22.4064C35.6855 21.9189 35.3428 21.4901 35.03 21.1682C34.7524 20.8825 34.8365 20.4071 35.2008 20.2461C36.9817 19.4593 38.2543 17.8058 38.2543 15.7257C38.2543 13.6469 37.0319 11.8538 35.2667 11.0254C35.0396 10.9187 34.9088 10.6774 34.9427 10.4287C35.4337 7.00086 32.6772 3.84858 29.2098 3.89332C28.983 3.89463 28.7793 3.76397 28.6821 3.55903C27.5849 1.10298 24.5261 -0.342128 21.8528 0.498095C21.1778 0.697036 20.7225 1.32866 20.7225 2.0325C20.7224 2.03241 20.7224 16.0538 20.7224 16.0538Z" fill="#5A73EF"/>
</g>

</symbol><symbol id="suitcase" viewBox="0 0 48 48">
<path d="M42.8438 11.3438H40.5V44.1562H42.8438C45.6869 44.1562 48 41.8432 48 39V16.5C48 13.6568 45.6869 11.3438 42.8438 11.3438Z" fill="#5A73EF"/>
<path d="M0 16.5V39C0 41.8432 2.31309 44.1562 5.15625 44.1562H7.5V11.3438H5.15625C2.31309 11.3438 0 13.6568 0 16.5Z" fill="#5A73EF"/>
<path d="M32.9062 8.0625C32.9062 5.73628 31.0137 3.84375 28.6875 3.84375H19.3125C16.9863 3.84375 15.0938 5.73628 15.0938 8.0625V11.3438H10.3125V44.1562H37.6875V11.3438H32.9062V8.0625ZM26.9796 30.8428L20.4844 34.5928C19.8118 34.9811 18.9517 34.7507 18.5634 34.0781L13.4072 25.1472C13.1858 24.7639 13.1579 24.2988 13.3318 23.8917L14.8365 20.3693C14.2244 19.5325 13.4029 18.0765 13.4185 16.3001C13.4186 16.2931 13.4187 16.2862 13.4189 16.279C13.4483 15.038 13.8361 13.9041 14.6042 12.8126C14.9626 12.3034 15.4028 11.8135 15.9211 11.3437H17.9062V8.0625C17.9062 7.28709 18.5371 6.65625 19.3125 6.65625H28.6875C29.4629 6.65625 30.0938 7.28709 30.0938 8.0625V11.3438H21.1188C18.8602 12.394 16.2922 14.0803 16.2308 16.3356C16.2254 17.4059 16.8103 18.3311 17.1738 18.8022L21.2885 19.298C21.7279 19.3509 22.1167 19.6077 22.3381 19.991L27.4943 28.9218C27.8827 29.5944 27.6521 30.4545 26.9796 30.8428ZM34.7812 21.1875C34.7812 23.5137 32.8887 25.4062 30.5625 25.4062C28.2363 25.4062 26.3438 23.5137 26.3438 21.1875C26.3438 18.8613 28.2363 16.9688 30.5625 16.9688C32.8887 16.9688 34.7812 18.8613 34.7812 21.1875Z" fill="#5A73EF"/>
<path d="M17.3453 21.6558L16.1944 24.3499L20.296 31.454L24.3555 29.1103L20.254 22.0061L17.3453 21.6558Z" fill="#5A73EF"/>
<path d="M30.5625 22.5938C31.3392 22.5938 31.9688 21.9642 31.9688 21.1875C31.9688 20.4108 31.3392 19.7812 30.5625 19.7812C29.7858 19.7812 29.1562 20.4108 29.1562 21.1875C29.1562 21.9642 29.7858 22.5938 30.5625 22.5938Z" fill="#5A73EF"/>
</symbol></svg>