<svg width="48" height="48" viewBox="0 0 48 48" fill="none" xmlns="http://www.w3.org/2000/svg">
<path d="M11.3639 14.469H14.1756V17.2807H11.3639V14.469Z" fill="#5A73EF"/>
<path d="M11.3639 25.7158H14.1756V28.5275H11.3639V25.7158Z" fill="#5A73EF"/>
<path d="M36.2256 27.4833C37.2631 27.4833 38.2697 27.6192 39.2276 27.875V4.21761C39.2276 3.44158 38.5978 2.81177 37.8217 2.81177H33.5995C33.5995 6.47163 30.622 9.4492 26.9621 9.4492H15.1943C13.3648 9.4492 11.705 8.70504 10.5035 7.50258C9.30103 6.30106 8.55687 4.64123 8.55687 2.81177H4.33467C3.55865 2.81177 2.92883 3.44158 2.92883 4.21761V39.551H24.5769C24.3107 33.0692 29.5732 27.4833 36.2256 27.4833ZM29.2321 11.6573H31.2612C32.0372 11.6573 32.667 12.2871 32.667 13.0631C32.667 13.8392 32.0372 14.469 31.2612 14.469H29.2321C28.456 14.469 27.8262 13.8392 27.8262 13.0631C27.8262 12.2871 28.456 11.6573 29.2321 11.6573ZM21.2047 11.6573H24.171C24.9471 11.6573 25.5769 12.2871 25.5769 13.0631C25.5769 13.8392 24.9471 14.469 24.171 14.469H21.2047C20.4287 14.469 19.7989 13.8392 19.7989 13.0631C19.7989 12.2871 20.4287 11.6573 21.2047 11.6573ZM21.2047 17.2807H31.2612C32.0372 17.2807 32.667 17.9105 32.667 18.6865C32.667 19.4635 32.0372 20.0923 31.2612 20.0923H21.2047C20.4287 20.0923 19.7989 19.4635 19.7989 18.6865C19.7989 17.9105 20.4287 17.2807 21.2047 17.2807ZM16.9872 29.9332C16.9872 30.7102 16.3574 31.339 15.5814 31.339H9.95802C9.182 31.339 8.55219 30.7102 8.55219 29.9332V24.3098C8.55219 23.5338 9.182 22.904 9.95802 22.904H15.5814C16.3574 22.904 16.9872 23.5338 16.9872 24.3098V29.9332ZM16.9872 18.6865C16.9872 19.4635 16.3574 20.0923 15.5814 20.0923H9.95802C9.182 20.0923 8.55219 19.4635 8.55219 18.6865V13.0631C8.55219 12.2871 9.182 11.6573 9.95802 11.6573H15.5814C16.3574 11.6573 16.9872 12.2871 16.9872 13.0631V18.6865ZM19.7989 24.4617C19.7989 23.6857 20.4287 23.0558 21.2047 23.0558H31.2612C32.0372 23.0558 32.667 23.6857 32.667 24.4617C32.667 25.2377 32.0372 25.8675 31.2612 25.8675H21.2047C20.4287 25.8675 19.7989 25.2377 19.7989 24.4617Z" fill="#5A73EF"/>
<path d="M15.1943 6.63743H26.9621C29.0718 6.63743 30.7878 4.92137 30.7878 2.81168V1.40584C30.7878 0.629815 30.159 0 29.382 0H12.7744C11.9974 0 11.3685 0.629815 11.3685 1.40584V2.81168C11.3685 4.92137 13.0846 6.63743 15.1943 6.63743Z" fill="#5A73EF"/>
<path d="M36.2257 30.2949C31.3483 30.2949 27.3801 34.2631 27.3801 39.1405C27.3801 44.03 31.3437 47.986 36.2257 47.986C41.2042 47.986 45.0712 43.9119 45.0712 39.1405C45.0712 34.3681 41.2033 30.2949 36.2257 30.2949ZM40.7421 37.9633L36.399 42.3064C35.8498 42.8556 34.9585 42.8537 34.4112 42.3064L31.7101 39.6044C31.1609 39.0561 31.1609 38.1657 31.7101 37.6165C32.2584 37.0673 33.1487 37.0673 33.698 37.6165L35.4056 39.3242L38.7534 35.9754C39.3026 35.4262 40.1929 35.4262 40.7421 35.9754C41.2914 36.5247 41.2914 37.4141 40.7421 37.9633Z" fill="#5A73EF"/>
<path d="M28.6491 48C24.2301 47.999 16.8195 47.9859 4.33467 47.9859C3.55865 47.9859 2.92883 47.3561 2.92883 46.5801V42.3625H25.0174C25.653 44.5877 26.9439 46.5464 28.6491 48Z" fill="#5A73EF"/>
</svg>
