<svg width="48" height="48" viewBox="0 0 48 48" fill="none" xmlns="http://www.w3.org/2000/svg">
<g clip-path="url(#clip0_6_899)">
<path d="M11.523 36.6826H1.84253C1.0659 36.6826 0.436279 37.3122 0.436279 38.0889V46.5939C0.436279 47.3705 1.0659 48.0001 1.84253 48.0001H12.9293V38.0889C12.9292 37.3122 12.2997 36.6826 11.523 36.6826Z" fill="#5A73EF"/>
<path d="M25.4223 28.8076H17.148C16.3714 28.8076 15.7418 29.4372 15.7418 30.2139V48.0001H26.8285V30.2139C26.8285 29.4372 26.1989 28.8076 25.4223 28.8076Z" fill="#5A73EF"/>
<path d="M44.7936 7.59469L47.6276 4.51875C48.0064 4.10813 48.1058 3.51281 47.8817 3.00187C47.6576 2.49 47.1523 2.16 46.5936 2.16H37.5281V1.40625C37.5281 0.63 36.899 0 36.1218 0C35.3456 0 34.7156 0.63 34.7156 1.40625V17.8125H31.0471C30.2705 17.8125 29.6409 18.4421 29.6409 19.2188V48H40.9667C41.7439 48 42.373 47.37 42.373 46.5938V19.2188C42.373 18.4425 41.7439 17.8125 40.9667 17.8125H37.5281V12.7809H46.5936C47.1626 12.7809 47.6755 12.4378 47.893 11.9119C48.1105 11.3859 47.9895 10.7803 47.5864 10.3791L44.7936 7.59469Z" fill="#5A73EF"/>
<path d="M23.8642 12.0733C24.2093 12.7692 25.0529 13.0534 25.7488 12.7084C26.4446 12.3633 26.729 11.5196 26.3839 10.8238C23.8344 5.68278 24.0923 6.20103 24.0553 6.13119C23.791 5.63188 23.2473 5.33038 22.6682 5.39038C22.6642 5.39075 22.6602 5.3916 22.6562 5.39207C22.5411 5.405 22.8484 5.34472 17.522 6.4656C16.762 6.62553 16.2756 7.37132 16.4355 8.13135C16.5749 8.79369 17.1592 9.24828 17.8101 9.24828C18.0059 9.24828 17.8798 9.2645 20.353 8.744C18.5089 12.3637 16.1089 15.6624 13.1943 18.5772C9.6221 22.1494 5.47179 24.95 0.858636 26.9011C0.143323 27.2038 -0.191271 28.0288 0.111261 28.7441C0.41398 29.46 1.23945 29.7938 1.9542 29.4915C6.9026 27.3986 11.3534 24.3956 15.1829 20.5659C18.3041 17.4447 20.8759 13.9117 22.8529 10.0342L23.8642 12.0733Z" fill="#5A73EF"/>
</g>
<defs>
<clipPath id="clip0_6_899">
<rect width="48" height="48" fill="white"/>
</clipPath>
</defs>
</svg>
